{
    "asset": {
        "generator": "FBX2glTF v0.9.7",
        "version": "2.0"
    },
    "scene": 0,
    "buffers": [
        {
            "byteLength": 375968,
            "uri": "buffer.bin"
        }
    ],
    "bufferViews": [
        {
            "buffer": 0,
            "byteLength": 13824,
            "byteOffset": 0,
            "target": 34963
        },
        {
            "buffer": 0,
            "byteLength": 14652,
            "byteOffset": 13824,
            "target": 34962
        },
        {
            "buffer": 0,
            "byteLength": 14652,
            "byteOffset": 28476,
            "target": 34962
        },
        {
            "buffer": 0,
            "byteLength": 9768,
            "byteOffset": 43128,
            "target": 34962
        },
        {
            "buffer": 0,
            "byteLength": 17472,
            "byteOffset": 52896,
            "target": 34963
        },
        {
            "buffer": 0,
            "byteLength": 18972,
            "byteOffset": 70368,
            "target": 34962
        },
        {
            "buffer": 0,
            "byteLength": 18972,
            "byteOffset": 89340,
            "target": 34962
        },
        {
            "buffer": 0,
            "byteLength": 12648,
            "byteOffset": 108312,
            "target": 34962
        },
        {
            "buffer": 0,
            "byteLength": 4224,
            "byteOffset": 120960,
            "target": 34963
        },
        {
            "buffer": 0,
            "byteLength": 8100,
            "byteOffset": 125184,
            "target": 34962
        },
        {
            "buffer": 0,
            "byteLength": 8100,
            "byteOffset": 133284,
            "target": 34962
        },
        {
            "buffer": 0,
            "byteLength": 5400,
            "byteOffset": 141384,
            "target": 34962
        },
        {
            "buffer": 0,
            "byteLength": 60288,
            "byteOffset": 146784,
            "target": 34963
        },
        {
            "buffer": 0,
            "byteLength": 63336,
            "byteOffset": 207072,
            "target": 34962
        },
        {
            "buffer": 0,
            "byteLength": 63336,
            "byteOffset": 270408,
            "target": 34962
        },
        {
            "buffer": 0,
            "byteLength": 42224,
            "byteOffset": 333744,
            "target": 34962
        }
    ],
    "scenes": [
        {
            "name": "Root Scene",
            "nodes": [
                0
            ]
        }
    ],
    "accessors": [
        {
            "componentType": 5123,
            "type": "SCALAR",
            "count": 6912,
            "bufferView": 0,
            "byteOffset": 0
        },
        {
            "componentType": 5126,
            "type": "VEC3",
            "count": 1221,
            "bufferView": 1,
            "byteOffset": 0,
            "min": [
                -0.0178539399057627,
                -0.0348948463797569,
                -0.0178539399057627
            ],
            "max": [
                0.0178539399057627,
                0.0189777966588736,
                0.0178539399057627
            ]
        },
        {
            "componentType": 5126,
            "type": "VEC3",
            "count": 1221,
            "bufferView": 2,
            "byteOffset": 0
        },
        {
            "componentType": 5126,
            "type": "VEC2",
            "count": 1221,
            "bufferView": 3,
            "byteOffset": 0
        },
        {
            "componentType": 5123,
            "type": "SCALAR",
            "count": 8736,
            "bufferView": 4,
            "byteOffset": 0
        },
        {
            "componentType": 5126,
            "type": "VEC3",
            "count": 1581,
            "bufferView": 5,
            "byteOffset": 0,
            "min": [
                -0.0122251054272056,
                0.0308437813073397,
                -0.0122251054272056
            ],
            "max": [
                0.0122251054272056,
                0.0398734696209431,
                0.0122251054272056
            ]
        },
        {
            "componentType": 5126,
            "type": "VEC3",
            "count": 1581,
            "bufferView": 6,
            "byteOffset": 0
        },
        {
            "componentType": 5126,
            "type": "VEC2",
            "count": 1581,
            "bufferView": 7,
            "byteOffset": 0
        },
        {
            "componentType": 5123,
            "type": "SCALAR",
            "count": 2112,
            "bufferView": 8,
            "byteOffset": 0
        },
        {
            "componentType": 5126,
            "type": "VEC3",
            "count": 675,
            "bufferView": 9,
            "byteOffset": 0,
            "min": [
                -0.0172600783407688,
                -0.0343959741294384,
                -0.0172600783407688
            ],
            "max": [
                0.0172600783407688,
                0.016210375353694,
                0.0172600783407688
            ]
        },
        {
            "componentType": 5126,
            "type": "VEC3",
            "count": 675,
            "bufferView": 10,
            "byteOffset": 0
        },
        {
            "componentType": 5126,
            "type": "VEC2",
            "count": 675,
            "bufferView": 11,
            "byteOffset": 0
        },
        {
            "componentType": 5123,
            "type": "SCALAR",
            "count": 30144,
            "bufferView": 12,
            "byteOffset": 0
        },
        {
            "componentType": 5126,
            "type": "VEC3",
            "count": 5278,
            "bufferView": 13,
            "byteOffset": 0,
            "min": [
                -0.0176881290972233,
                -0.0351456962525845,
                -0.0176881290972233
            ],
            "max": [
                0.0176881290972233,
                0.0305144879966974,
                0.0176881290972233
            ]
        },
        {
            "componentType": 5126,
            "type": "VEC3",
            "count": 5278,
            "bufferView": 14,
            "byteOffset": 0
        },
        {
            "componentType": 5126,
            "type": "VEC2",
            "count": 5278,
            "bufferView": 15,
            "byteOffset": 0
        }
    ],
    "images": [
        {
            "name": "kikkoman.jpg",
            "uri": "kikkoman.jpg"
        }
    ],
    "samplers": [
        {}
    ],
    "textures": [
        {
            "name": "file5",
            "sampler": 0,
            "source": 0
        }
    ],
    "materials": [
        {
            "name": "soysauce_cap",
            "alphaMode": "OPAQUE",
            "extras": {
                "fromFBX": {
                    "shadingModel": "Phong",
                    "isTruePBR": false
                }
            },
            "pbrMetallicRoughness": {
                "baseColorFactor": [
                    0.620664417743683,
                    0.0109617058187723,
                    0.0147999403998256,
                    1.0
                ],
                "metallicFactor": 0.400000005960464,
                "roughnessFactor": 0.490532398223877
            }
        },
        {
            "name": "soysauce_sauce",
            "alphaMode": "OPAQUE",
            "extras": {
                "fromFBX": {
                    "shadingModel": "Phong",
                    "isTruePBR": false
                }
            },
            "pbrMetallicRoughness": {
                "baseColorFactor": [
                    0.111199997365475,
                    0.0183146428316832,
                    0.0,
                    1.0
                ],
                "metallicFactor": 0.400000005960464,
                "roughnessFactor": 0.490532398223877
            }
        },
        {
            "name": "soysauce_bottle",
            "alphaMode": "OPAQUE",
            "extras": {
                "fromFBX": {
                    "shadingModel": "Phong",
                    "isTruePBR": false
                }
            },
            "pbrMetallicRoughness": {
                "baseColorFactor": [
                    0.400000005960464,
                    0.400000005960464,
                    0.400000005960464,
                    1.0
                ],
                "metallicFactor": 0.400000005960464,
                "roughnessFactor": 0.490532398223877
            }
        },
        {
            "name": "soysauce_label",
            "alphaMode": "OPAQUE",
            "extras": {
                "fromFBX": {
                    "shadingModel": "Phong",
                    "isTruePBR": false
                }
            },
            "pbrMetallicRoughness": {
                "baseColorTexture": {
                    "index": 0,
                    "texCoord": 0
                },
                "baseColorFactor": [
                    0.800000011920929,
                    0.800000011920929,
                    0.800000011920929,
                    1.0
                ],
                "metallicFactor": 0.400000005960464,
                "roughnessFactor": 0.490532398223877
            }
        }
    ],
    "meshes": [
        {
            "name": "label",
            "primitives": [
                {
                    "material": 3,
                    "mode": 4,
                    "attributes": {
                        "NORMAL": 2,
                        "POSITION": 1,
                        "TEXCOORD_0": 3
                    },
                    "indices": 0
                }
            ]
        },
        {
            "name": "cap",
            "primitives": [
                {
                    "material": 0,
                    "mode": 4,
                    "attributes": {
                        "NORMAL": 6,
                        "POSITION": 5,
                        "TEXCOORD_0": 7
                    },
                    "indices": 4
                }
            ]
        },
        {
            "name": "soysouce",
            "primitives": [
                {
                    "material": 1,
                    "mode": 4,
                    "attributes": {
                        "NORMAL": 10,
                        "POSITION": 9,
                        "TEXCOORD_0": 11
                    },
                    "indices": 8
                }
            ]
        },
        {
            "name": "bottle",
            "primitives": [
                {
                    "material": 2,
                    "mode": 4,
                    "attributes": {
                        "NORMAL": 14,
                        "POSITION": 13,
                        "TEXCOORD_0": 15
                    },
                    "indices": 12
                }
            ]
        }
    ],
    "nodes": [
        {
            "name": "RootNode",
            "translation": [
                0.0,
                0.0,
                0.0
            ],
            "rotation": [
                0.0,
                0.0,
                0.0,
                1.0
            ],
            "scale": [
                1.0,
                1.0,
                1.0
            ],
            "children": [
                1,
                2,
                3,
                4
            ]
        },
        {
            "name": "cap",
            "translation": [
                0.0,
                -0.000889962539076805,
                0.0
            ],
            "rotation": [
                0.0,
                0.0,
                0.0,
                1.0
            ],
            "scale": [
                1.0,
                1.0,
                1.0
            ],
            "mesh": 1
        },
        {
            "name": "soysouce",
            "translation": [
                0.0,
                8.2741207734216e-05,
                0.0
            ],
            "rotation": [
                0.0,
                0.0,
                0.0,
                1.0
            ],
            "scale": [
                1.00889754295349,
                1.00889754295349,
                1.00889754295349
            ],
            "mesh": 2
        },
        {
            "name": "bottle",
            "translation": [
                0.0,
                0.0,
                0.0
            ],
            "rotation": [
                0.0,
                0.0,
                0.0,
                1.0
            ],
            "scale": [
                1.0,
                1.0,
                1.0
            ],
            "mesh": 3
        },
        {
            "name": "label",
            "translation": [
                0.0,
                0.0,
                0.0
            ],
            "rotation": [
                0.0,
                0.0,
                0.0,
                1.0
            ],
            "scale": [
                1.0,
                1.0,
                1.0
            ],
            "mesh": 0
        }
    ]
}