{
    "asset": {
        "generator": "FBX2glTF v0.9.7",
        "version": "2.0"
    },
    "scene": 0,
    "buffers": [
        {
            "byteLength": 375968,
            "uri": "buffer.bin"
        }
    ],
    "bufferViews": [
        {
            "buffer": 0,
            "byteLength": 13824,
            "byteOffset": 0,
            "target": 34963
        },
        {
            "buffer": 0,
            "byteLength": 14652,
            "byteOffset": 13824,
            "target": 34962
        },
        {
            "buffer": 0,
            "byteLength": 14652,
            "byteOffset": 28476,
            "target": 34962
        },
        {
            "buffer": 0,
            "byteLength": 9768,
            "byteOffset": 43128,
            "target": 34962
        },
        {
            "buffer": 0,
            "byteLength": 60288,
            "byteOffset": 52896,
            "target": 34963
        },
        {
            "buffer": 0,
            "byteLength": 63336,
            "byteOffset": 113184,
            "target": 34962
        },
        {
            "buffer": 0,
            "byteLength": 63336,
            "byteOffset": 176520,
            "target": 34962
        },
        {
            "buffer": 0,
            "byteLength": 42224,
            "byteOffset": 239856,
            "target": 34962
        },
        {
            "buffer": 0,
            "byteLength": 4224,
            "byteOffset": 282080,
            "target": 34963
        },
        {
            "buffer": 0,
            "byteLength": 8100,
            "byteOffset": 286304,
            "target": 34962
        },
        {
            "buffer": 0,
            "byteLength": 8100,
            "byteOffset": 294404,
            "target": 34962
        },
        {
            "buffer": 0,
            "byteLength": 5400,
            "byteOffset": 302504,
            "target": 34962
        },
        {
            "buffer": 0,
            "byteLength": 17472,
            "byteOffset": 307904,
            "target": 34963
        },
        {
            "buffer": 0,
            "byteLength": 18972,
            "byteOffset": 325376,
            "target": 34962
        },
        {
            "buffer": 0,
            "byteLength": 18972,
            "byteOffset": 344348,
            "target": 34962
        },
        {
            "buffer": 0,
            "byteLength": 12648,
            "byteOffset": 363320,
            "target": 34962
        }
    ],
    "scenes": [
        {
            "name": "Root Scene",
            "nodes": [
                0
            ]
        }
    ],
    "accessors": [
        {
            "componentType": 5123,
            "type": "SCALAR",
            "count": 6912,
            "bufferView": 0,
            "byteOffset": 0
        },
        {
            "componentType": 5126,
            "type": "VEC3",
            "count": 1221,
            "bufferView": 1,
            "byteOffset": 0,
            "min": [
                -0.892696976661682,
                0.0127667877823114,
                -0.892696976661682
            ],
            "max": [
                0.892696976661682,
                2.70639896392822,
                0.892696976661682
            ]
        },
        {
            "componentType": 5126,
            "type": "VEC3",
            "count": 1221,
            "bufferView": 2,
            "byteOffset": 0
        },
        {
            "componentType": 5126,
            "type": "VEC2",
            "count": 1221,
            "bufferView": 3,
            "byteOffset": 0
        },
        {
            "componentType": 5123,
            "type": "SCALAR",
            "count": 30144,
            "bufferView": 4,
            "byteOffset": 0
        },
        {
            "componentType": 5126,
            "type": "VEC3",
            "count": 5278,
            "bufferView": 5,
            "byteOffset": 0,
            "min": [
                -0.884406507015228,
                0.000224134913878515,
                -0.884406507015228
            ],
            "max": [
                0.884406507015228,
                3.28323316574097,
                0.884406507015228
            ]
        },
        {
            "componentType": 5126,
            "type": "VEC3",
            "count": 5278,
            "bufferView": 6,
            "byteOffset": 0
        },
        {
            "componentType": 5126,
            "type": "VEC2",
            "count": 5278,
            "bufferView": 7,
            "byteOffset": 0
        },
        {
            "componentType": 5123,
            "type": "SCALAR",
            "count": 2112,
            "bufferView": 8,
            "byteOffset": 0
        },
        {
            "componentType": 5126,
            "type": "VEC3",
            "count": 675,
            "bufferView": 9,
            "byteOffset": 0,
            "min": [
                -0.87068247795105,
                0.0265453495085239,
                -0.87068247795105
            ],
            "max": [
                0.87068247795105,
                2.5793764591217,
                0.87068247795105
            ]
        },
        {
            "componentType": 5126,
            "type": "VEC3",
            "count": 675,
            "bufferView": 10,
            "byteOffset": 0
        },
        {
            "componentType": 5126,
            "type": "VEC2",
            "count": 675,
            "bufferView": 11,
            "byteOffset": 0
        },
        {
            "componentType": 5123,
            "type": "SCALAR",
            "count": 8736,
            "bufferView": 12,
            "byteOffset": 0
        },
        {
            "componentType": 5126,
            "type": "VEC3",
            "count": 1581,
            "bufferView": 13,
            "byteOffset": 0,
            "min": [
                -0.611255288124084,
                3.25519990921021,
                -0.611255288124084
            ],
            "max": [
                0.611255288124084,
                3.70668411254883,
                0.611255288124084
            ]
        },
        {
            "componentType": 5126,
            "type": "VEC3",
            "count": 1581,
            "bufferView": 14,
            "byteOffset": 0
        },
        {
            "componentType": 5126,
            "type": "VEC2",
            "count": 1581,
            "bufferView": 15,
            "byteOffset": 0
        }
    ],
    "images": [
        {
            "name": "kikkoman.jpg",
            "uri": "kikkoman.jpg"
        }
    ],
    "samplers": [
        {}
    ],
    "textures": [
        {
            "name": "file5",
            "sampler": 0,
            "source": 0
        }
    ],
    "materials": [
        {
            "name": "soysauce_label",
            "alphaMode": "OPAQUE",
            "extras": {
                "fromFBX": {
                    "shadingModel": "Phong",
                    "isTruePBR": false
                }
            },
            "pbrMetallicRoughness": {
                "baseColorTexture": {
                    "index": 0,
                    "texCoord": 0
                },
                "baseColorFactor": [
                    0.800000011920929,
                    0.800000011920929,
                    0.800000011920929,
                    1.0
                ],
                "metallicFactor": 0.400000005960464,
                "roughnessFactor": 0.490532398223877
            }
        },
        {
            "name": "soysauce_bottle",
            "alphaMode": "OPAQUE",
            "extras": {
                "fromFBX": {
                    "shadingModel": "Phong",
                    "isTruePBR": false
                }
            },
            "pbrMetallicRoughness": {
                "baseColorFactor": [
                    0.400000005960464,
                    0.400000005960464,
                    0.400000005960464,
                    1.0
                ],
                "metallicFactor": 0.400000005960464,
                "roughnessFactor": 0.490532398223877
            }
        },
        {
            "name": "soysauce_sauce",
            "alphaMode": "OPAQUE",
            "extras": {
                "fromFBX": {
                    "shadingModel": "Phong",
                    "isTruePBR": false
                }
            },
            "pbrMetallicRoughness": {
                "baseColorFactor": [
                    0.111199997365475,
                    0.0183146428316832,
                    0.0,
                    1.0
                ],
                "metallicFactor": 0.400000005960464,
                "roughnessFactor": 0.490532398223877
            }
        },
        {
            "name": "soysauce_cap",
            "alphaMode": "OPAQUE",
            "extras": {
                "fromFBX": {
                    "shadingModel": "Phong",
                    "isTruePBR": false
                }
            },
            "pbrMetallicRoughness": {
                "baseColorFactor": [
                    0.620664417743683,
                    0.0109617058187723,
                    0.0147999403998256,
                    1.0
                ],
                "metallicFactor": 0.400000005960464,
                "roughnessFactor": 0.490532398223877
            }
        }
    ],
    "meshes": [
        {
            "name": "label",
            "primitives": [
                {
                    "material": 0,
                    "mode": 4,
                    "attributes": {
                        "NORMAL": 2,
                        "POSITION": 1,
                        "TEXCOORD_0": 3
                    },
                    "indices": 0
                }
            ]
        },
        {
            "name": "bottle",
            "primitives": [
                {
                    "material": 1,
                    "mode": 4,
                    "attributes": {
                        "NORMAL": 6,
                        "POSITION": 5,
                        "TEXCOORD_0": 7
                    },
                    "indices": 4
                }
            ]
        },
        {
            "name": "soysouce",
            "primitives": [
                {
                    "material": 2,
                    "mode": 4,
                    "attributes": {
                        "NORMAL": 10,
                        "POSITION": 9,
                        "TEXCOORD_0": 11
                    },
                    "indices": 8
                }
            ]
        },
        {
            "name": "cap",
            "primitives": [
                {
                    "material": 3,
                    "mode": 4,
                    "attributes": {
                        "NORMAL": 14,
                        "POSITION": 13,
                        "TEXCOORD_0": 15
                    },
                    "indices": 12
                }
            ]
        }
    ],
    "nodes": [
        {
            "name": "RootNode",
            "translation": [
                0.0,
                0.0,
                0.0
            ],
            "rotation": [
                0.0,
                0.0,
                0.0,
                1.0
            ],
            "scale": [
                1.0,
                1.0,
                1.0
            ],
            "children": [
                1
            ]
        },
        {
            "name": "group1",
            "translation": [
                0.0,
                0.0,
                0.0
            ],
            "rotation": [
                0.0,
                0.0,
                0.0,
                1.0
            ],
            "scale": [
                1.0,
                1.0,
                1.0
            ],
            "children": [
                2,
                3,
                4,
                5
            ]
        },
        {
            "name": "label",
            "translation": [
                0.0,
                0.0,
                0.0
            ],
            "rotation": [
                0.0,
                0.0,
                0.0,
                1.0
            ],
            "scale": [
                1.0,
                1.0,
                1.0
            ],
            "mesh": 0
        },
        {
            "name": "bottle",
            "translation": [
                0.0,
                0.0,
                0.0
            ],
            "rotation": [
                0.0,
                0.0,
                0.0,
                1.0
            ],
            "scale": [
                1.0,
                1.0,
                1.0
            ],
            "mesh": 1
        },
        {
            "name": "soysouce",
            "translation": [
                0.0,
                0.0,
                0.0
            ],
            "rotation": [
                0.0,
                0.0,
                0.0,
                1.0
            ],
            "scale": [
                1.0,
                1.0,
                1.0
            ],
            "mesh": 2
        },
        {
            "name": "cap",
            "translation": [
                0.0,
                0.0,
                0.0
            ],
            "rotation": [
                0.0,
                0.0,
                0.0,
                1.0
            ],
            "scale": [
                1.0,
                1.0,
                1.0
            ],
            "mesh": 3
        }
    ]
}